HIERARCHY
ROOT Hips
{
	OFFSET 53.830799 -12.019916 93.926903
	CHANNELS 6 Xposition Yposition Zposition Xrotation Yrotation Zrotation
	JOINT spine
	{
		OFFSET 0.000000 -0.448574 7.800591
		CHANNELS 3 Xrotation Yrotation Zrotation
		JOINT spine1
		{
			OFFSET 0.000000 -0.000002 10.136398
			CHANNELS 3 Xrotation Yrotation Zrotation
			JOINT spine2
			{
				OFFSET 0.000000 -0.000002 9.712509
				CHANNELS 3 Xrotation Yrotation Zrotation
				JOINT Neck
				{
					OFFSET 0.000000 -1.188873 24.936096
					CHANNELS 3 Xrotation Yrotation Zrotation
					JOINT Head
					{
						OFFSET 0.000000 -0.000001 7.533844
						CHANNELS 3 Xrotation Yrotation Zrotation
						End Site
						{
							OFFSET 0.000000 6.014017 18.236099
						}
					}
				}
				JOINT RightShoulder
				{
					OFFSET -4.089649 0.569455 10.488800
					CHANNELS 3 Xrotation Yrotation Zrotation
					JOINT RightArm
					{
						OFFSET 0.000000 -0.000002 13.757004
						CHANNELS 3 Xrotation Yrotation Zrotation
						JOINT RightArmRoll
						{
							OFFSET 0.000000 -0.000001 6.944778
							CHANNELS 3 Xrotation Yrotation Zrotation
							JOINT RightForeArm
							{
								OFFSET 0.000000 -0.000004 20.227707
								CHANNELS 3 Xrotation Yrotation Zrotation
								JOINT RightForeArmRoll
								{
									OFFSET 0.000000 -0.000001 7.793121
									CHANNELS 3 Xrotation Yrotation Zrotation
									JOINT RightHand
									{
										OFFSET 0.000000 -0.000003 15.639099
										CHANNELS 3 Xrotation Yrotation Zrotation
										End Site
										{
											OFFSET 0.000000 0.000000 0.100006
										}
									}
								}
							}
						}
					}
				}
				JOINT LeftShoulder
				{
					OFFSET 4.089649 0.569455 10.488800
					CHANNELS 3 Xrotation Yrotation Zrotation
					JOINT LeftArm
					{
						OFFSET 0.000000 -0.000002 13.757004
						CHANNELS 3 Xrotation Yrotation Zrotation
						JOINT LeftArmRoll
						{
							OFFSET 0.000000 -0.000001 6.944778
							CHANNELS 3 Xrotation Yrotation Zrotation
							JOINT LeftForeArm
							{
								OFFSET 0.000000 -0.000004 20.227707
								CHANNELS 3 Xrotation Yrotation Zrotation
								JOINT LeftForeArmRoll
								{
									OFFSET 0.000000 -0.000001 7.793121
									CHANNELS 3 Xrotation Yrotation Zrotation
									JOINT LeftHand
									{
										OFFSET 0.000000 -0.000003 15.639099
										CHANNELS 3 Xrotation Yrotation Zrotation
										End Site
										{
											OFFSET 0.000000 0.000000 0.100006
										}
									}
								}
							}
						}
					}
				}
			}
		}
	}
	JOINT RightUpLeg
	{
		OFFSET -6.914150 1.063581 -1.267883
		CHANNELS 3 Xrotation Yrotation Zrotation
		JOINT RightUpLegRoll
		{
			OFFSET 0.000000 -0.000003 18.337799
			CHANNELS 3 Xrotation Yrotation Zrotation
			JOINT RightLeg
			{
				OFFSET 0.000000 0.000004 -22.708504
				CHANNELS 3 Xrotation Yrotation Zrotation
				JOINT RightLegRoll
				{
					OFFSET 0.000000 -0.000004 22.782799
					CHANNELS 3 Xrotation Yrotation Zrotation
					JOINT RightFoot
					{
						OFFSET 0.000000 -0.000003 18.962898
						CHANNELS 3 Xrotation Yrotation Zrotation
						JOINT RightToeBase
						{
							OFFSET 0.000000 -0.000003 15.852005
							CHANNELS 3 Xrotation Yrotation Zrotation
							End Site
							{
								OFFSET 0.006718 0.884892 7.677017
							}
						}
					}
				}
			}
		}
	}
	JOINT LeftUpLeg
	{
		OFFSET 6.914150 1.063581 -1.267883
		CHANNELS 3 Xrotation Yrotation Zrotation
		JOINT LeftUpLegRoll
		{
			OFFSET 0.000000 -0.000003 18.337898
			CHANNELS 3 Xrotation Yrotation Zrotation
			JOINT LeftLeg
			{
				OFFSET 0.000000 -0.000004 22.708405
				CHANNELS 3 Xrotation Yrotation Zrotation
				JOINT LeftLegRoll
				{
					OFFSET 0.000000 -0.000004 22.993408
					CHANNELS 3 Xrotation Yrotation Zrotation
					JOINT LeftFoot
					{
						OFFSET 0.000000 -0.000003 18.752197
						CHANNELS 3 Xrotation Yrotation Zrotation
						JOINT LeftToeBase
						{
							OFFSET 0.000000 -0.000003 15.852005
							CHANNELS 3 Xrotation Yrotation Zrotation
							End Site
							{
								OFFSET -0.030113 0.884891 7.677017
							}
						}
					}
				}
			}
		}
	}
}
MOTION
Frames: 13
Frame Time: 0.041667
54.716095 -9.919697 93.969894 -4.716231 -0.044649 0.965182 -0.767422 -0.008314 0.430642 2.490690 -0.017768 0.845008 4.135689 -0.007540 0.845183 13.870302 4.632107 -1.991175 -12.930248 -6.200869 -2.220795 -25.539993 -80.383636 -29.310828 -86.479921 -106.361823 -62.291353 0.000000 -0.000000 -0.000001 12.808704 -4.795875 -0.703081 -0.000001 -0.000008 -3.007579 -5.000185 -7.999409 0.000077 2.511002 66.487172 -1.890923 -8.531515 108.532280 -14.204067 0.000000 0.000002 -0.000004 9.608368 -3.029776 0.873203 -0.000001 -0.000002 2.999998 -5.000152 7.999944 -0.000009 -1.564082 -173.746325 0.662727 -179.999991 0.000005 -0.862006 169.427692 0.707785 -0.917899 -0.000006 -0.000003 -0.145988 68.184843 5.020922 6.923163 25.457664 -7.355618 0.001041 -1.076682 177.973351 6.071041 -0.000005 -0.000004 -1.332100 -13.348062 3.911295 0.815072 -0.000002 0.000002 -0.223782 72.611762 -6.958263 -1.658014 25.456950 7.355612 -0.006460 
54.708797 -9.927886 93.970001 -4.725322 -0.042465 0.982367 -0.769563 -0.008138 0.431238 2.484770 -0.017611 0.847361 4.129770 -0.007379 0.847527 13.881816 4.615612 -2.000391 -12.874450 -6.210817 -2.225603 -25.611135 -80.409351 -29.384679 -86.632364 -106.336087 -62.304043 -0.000000 -0.000000 0.000002 12.688525 -4.718926 -0.714450 0.000002 -0.000008 -3.007582 -5.000185 -7.999408 0.000075 2.485182 66.492588 -1.861200 -8.581951 108.509344 -14.174969 0.000000 0.000001 -0.000005 9.557210 -3.045013 0.872970 -0.000001 -0.000000 3.000000 -5.000151 7.999947 -0.000011 -1.559262 -173.756297 0.648136 -179.999991 0.000005 -0.862006 169.395235 0.729327 -0.918451 -0.000007 -0.000002 -0.143612 68.215838 5.025410 6.913718 25.457664 -7.355617 0.001043 -1.066408 177.966344 6.067347 -0.000004 -0.000005 -1.332100 -13.352360 3.910477 0.815134 -0.000002 0.000002 -0.223782 72.614528 -6.957336 -1.660699 25.456953 7.355613 -0.006460 
54.710201 -9.960987 93.964691 -4.734851 -0.040192 0.999381 -0.771591 -0.008025 0.431891 2.479039 -0.017582 0.849868 4.124039 -0.007345 0.850025 13.892636 4.599801 -2.009584 -12.817568 -6.221744 -2.230384 -25.680567 -80.434131 -29.456745 -86.777533 -106.311000 -62.310607 -0.000001 -0.000000 0.000002 12.569113 -4.642740 -0.725297 -0.000000 -0.000008 -3.007578 -5.000189 -7.999409 0.000072 2.459596 66.498394 -1.831702 -8.633471 108.486463 -14.144623 -0.000000 0.000001 -0.000007 9.507244 -3.060146 0.872714 -0.000002 -0.000000 3.000001 -5.000153 7.999945 -0.000011 -1.554274 -173.767266 0.633070 -179.999991 0.000005 -0.862006 169.362272 0.750878 -0.919966 -0.000007 -0.000002 -0.141202 68.247148 5.029953 6.904170 25.457664 -7.355619 0.001042 -1.055427 177.959336 6.063386 -0.000004 -0.000004 -1.332100 -13.356560 3.909864 0.815188 -0.000003 0.000002 -0.223782 72.617034 -6.956546 -1.663223 25.456953 7.355613 -0.006460 
54.710297 -9.964231 93.965881 -4.744700 -0.037859 1.016277 -0.773525 -0.007958 0.432585 2.473429 -0.017642 0.852483 4.118429 -0.007401 0.852630 13.902971 4.584476 -2.018763 -12.759901 -6.233363 -2.235133 -25.748992 -80.458324 -29.527768 -86.917709 -106.286213 -62.313127 -0.000000 0.000000 0.000003 12.450265 -4.567055 -0.735709 0.000003 -0.000007 -3.007579 -5.000186 -7.999408 0.000072 2.434169 66.504398 -1.802357 -8.685783 108.463623 -14.113411 0.000000 0.000002 -0.000006 9.458084 -3.075202 0.872440 -0.000002 -0.000001 3.000000 -5.000152 7.999945 -0.000009 -1.549181 -173.778249 0.617649 -179.999991 0.000005 -0.862006 169.328914 0.773388 -0.921269 -0.000007 -0.000002 -0.138767 68.278703 5.034534 6.894412 25.457664 -7.355616 0.001041 -1.043955 177.952328 6.059235 -0.000004 -0.000005 -1.332101 -13.360463 3.909393 0.815219 -0.000002 0.000002 -0.223782 72.619452 -6.955823 -1.665461 25.456955 7.355613 -0.006460 
54.705097 -9.978567 93.972092 -4.754721 -0.035494 1.033108 -0.775414 -0.007915 0.433301 2.467900 -0.017755 0.855159 4.112899 -0.007508 0.855300 13.913107 4.569420 -2.027937 -12.701733 -6.245391 -2.239854 -25.817231 -80.482223 -29.598574 -87.054989 -106.261768 -62.313291 0.000000 -0.000001 0.000001 12.331667 -4.491668 -0.745749 0.000001 -0.000008 -3.007580 -5.000185 -7.999408 0.000074 2.408828 66.510497 -1.773091 -8.739077 108.439840 -14.081112 0.000000 0.000002 -0.000007 9.409406 -3.090217 0.872141 -0.000002 -0.000002 3.000003 -5.000152 7.999946 -0.000007 -1.544019 -173.789246 0.602026 -179.999991 0.000005 -0.862006 169.295350 0.795907 -0.922554 -0.000007 -0.000002 -0.136318 68.310361 5.039171 6.884559 25.457665 -7.355617 0.001042 -1.032202 177.945334 6.054971 -0.000004 -0.000005 -1.332100 -13.364264 3.909010 0.815243 -0.000002 0.000002 -0.223782 72.621884 -6.955130 -1.667603 25.456948 7.355612 -0.006460 
54.704395 -9.989109 93.970192 -4.764780 -0.033126 1.049919 -0.777290 -0.007879 0.434023 2.462389 -0.017880 0.857851 4.107389 -0.007629 0.857984 13.923144 4.554424 -2.037098 -12.643566 -6.257527 -2.244559 -25.885273 -80.505923 -29.669157 -87.191627 -106.237329 -62.312854 -0.000001 0.000000 0.000000 12.213222 -4.416330 -0.755445 0.000003 -0.000007 -3.007580 -5.000186 -7.999409 0.000075 2.383497 66.516583 -1.743833 -8.792572 108.416064 -14.048708 0.000000 0.000001 -0.000007 9.360837 -3.105225 0.871819 -0.000002 -0.000001 3.000002 -5.000152 7.999945 -0.000007 -1.538838 -173.800215 0.586351 -179.999991 0.000005 -0.862006 169.261800 0.818420 -0.922802 -0.000006 -0.000002 -0.133867 68.342115 5.043759 6.874692 25.457664 -7.355619 0.001042 -1.020380 177.938326 6.050692 -0.000004 -0.000005 -1.332101 -13.368068 3.908647 0.815268 -0.000002 0.000002 -0.223782 72.624206 -6.954444 -1.669855 25.456952 7.355613 -0.006460 
54.702797 -9.969927 93.963081 -4.774759 -0.030783 1.066769 -0.779187 -0.007831 0.434735 2.456840 -0.017981 0.860513 4.101839 -0.007725 0.860637 13.933284 4.539302 -2.046259 -12.585488 -6.269483 -2.249233 -25.954130 -80.529795 -29.740587 -87.329706 -106.212782 -62.313694 -0.000001 -0.000000 0.000000 12.094618 -4.340817 -0.764876 0.000003 -0.000007 -3.007580 -5.000186 -7.999410 0.000077 2.358112 66.522675 -1.714521 -8.845541 108.393285 -14.016738 0.000000 0.000001 -0.000007 9.312030 -3.120255 0.871472 -0.000002 -0.000001 3.000000 -5.000152 7.999945 -0.000012 -1.533690 -173.812195 0.570800 -179.999991 0.000005 -0.862006 169.228332 0.839935 -0.924211 -0.000006 -0.000002 -0.131422 68.373779 5.048337 6.864920 25.457664 -7.355619 0.001042 -1.008695 177.931332 6.046445 -0.000004 -0.000004 -1.332101 -13.371972 3.908233 0.815297 -0.000002 0.000002 -0.223782 72.626638 -6.953751 -1.671996 25.456950 7.355613 -0.006460 
54.701897 -9.987606 93.964890 -4.784523 -0.028492 1.083705 -0.781149 -0.007751 0.435416 2.451200 -0.018018 0.863096 4.096200 -0.007757 0.863212 13.943814 4.523814 -2.055420 -12.528113 -6.280980 -2.253911 -26.024441 -80.554124 -29.813503 -87.471999 -106.188077 -62.318086 -0.000001 -0.000001 -0.000001 11.975751 -4.264904 -0.774085 0.000001 -0.000007 -3.007578 -5.000186 -7.999408 0.000075 2.332580 66.528549 -1.685069 -8.898580 108.369503 -13.984840 -0.000000 0.000001 -0.000008 9.262636 -3.135341 0.871092 -0.000002 -0.000001 3.000001 -5.000152 7.999944 -0.000008 -1.528620 -173.823192 0.555474 -179.999991 0.000004 -0.862006 169.195056 0.862439 -0.925408 -0.000006 -0.000002 -0.128994 68.405232 5.052892 6.855155 25.457664 -7.355619 0.001043 -0.997362 177.924311 6.042338 -0.000005 -0.000005 -1.332100 -13.375974 3.907722 0.815335 -0.000003 0.000002 -0.223782 72.629151 -6.952991 -1.674324 25.456953 7.355613 -0.006460 
54.696598 -10.007516 93.971092 -4.793911 -0.026281 1.100776 -0.783210 -0.007619 0.436053 2.445410 -0.017954 0.865557 4.090409 -0.007688 0.865665 13.954835 4.507782 -2.064586 -12.471516 -6.291713 -2.258570 -26.096691 -80.579082 -29.888423 -87.620501 -106.162908 -62.327703 -0.000000 -0.000000 0.000000 11.856421 -4.188342 -0.783118 0.000003 -0.000007 -3.007577 -5.000185 -7.999409 0.000074 2.306852 66.534239 -1.655424 -8.950523 108.346703 -13.954116 0.000000 0.000001 -0.000008 9.212305 -3.150517 0.870684 -0.000001 0.000000 2.999998 -5.000153 7.999945 -0.000012 -1.523694 -173.833177 0.540520 -179.999991 0.000005 -0.862006 169.162298 0.883945 -0.925780 -0.000006 -0.000002 -0.126594 68.436474 5.057383 6.845582 25.457667 -7.355619 0.001042 -0.986593 177.917316 6.038449 -0.000004 -0.000004 -1.332100 -13.380172 3.907049 0.815390 -0.000002 0.000002 -0.223782 72.631747 -6.952167 -1.676837 25.456955 7.355613 -0.006460 
54.693295 -10.010210 93.968895 -4.802833 -0.024179 1.118038 -0.785401 -0.007418 0.436626 2.439419 -0.017749 0.867849 4.084409 -0.007480 0.867946 13.966547 4.490983 -2.073750 -12.416096 -6.301390 -2.263228 -26.171495 -80.604968 -29.965952 -87.777718 -106.137158 -62.344573 -0.000001 -0.000000 0.000003 11.736324 -4.110905 -0.792012 -0.000000 -0.000007 -3.007580 -5.000184 -7.999409 0.000074 2.280831 66.539525 -1.625500 -9.001464 108.323850 -13.924435 0.000000 0.000002 -0.000006 9.160681 -3.165816 0.870236 -0.000001 -0.000001 2.999998 -5.000153 7.999947 -0.000011 -1.518934 -173.844147 0.526143 -179.999991 0.000005 -0.862006 169.130032 0.904482 -0.927317 -0.000007 -0.000002 -0.124231 68.467394 5.061765 6.836104 25.457665 -7.355617 0.001042 -0.976594 177.910295 6.034844 -0.000004 -0.000004 -1.332100 -13.384669 3.906150 0.815465 -0.000003 0.000002 -0.223782 72.634520 -6.951239 -1.679622 25.456953 7.355613 -0.006460 
54.689198 -10.035218 93.964790 -4.811110 -0.022211 1.135530 -0.787767 -0.007128 0.437120 2.433160 -0.017367 0.869926 4.078160 -0.007094 0.870011 13.979244 4.473205 -2.082924 -12.362256 -6.309727 -2.267900 -26.249932 -80.632139 -30.047218 -87.945365 -106.110629 -62.370064 0.000000 -0.000001 -0.000002 11.615355 -4.032364 -0.800812 0.000001 -0.000008 -3.007579 -5.000186 -7.999407 0.000074 2.254457 66.544409 -1.595234 -9.050666 108.301938 -13.896740 -0.000000 0.000001 -0.000006 9.107404 -3.181267 0.869745 -0.000001 -0.000001 2.999998 -5.000152 7.999945 -0.000009 -1.514401 -173.854132 0.512443 -179.999991 0.000005 -0.862006 169.098477 0.924025 -0.928037 -0.000006 -0.000002 -0.121917 68.497877 5.066023 6.826916 25.457664 -7.355618 0.001042 -0.967580 177.904298 6.031595 -0.000004 -0.000004 -1.332100 -13.389460 3.904963 0.815564 -0.000003 0.000002 -0.223781 72.637450 -6.950182 -1.682776 25.456955 7.355612 -0.006460 
54.688396 -10.042615 93.966087 -4.818649 -0.020407 1.153320 -0.790337 -0.006730 0.437516 2.426600 -0.016767 0.871740 4.071590 -0.006492 0.871813 13.993021 4.454252 -2.092105 -12.310290 -6.316433 -2.272597 -26.332133 -80.660682 -30.132370 -88.126345 -106.083425 -62.406680 -0.000001 -0.000000 0.000000 11.493106 -3.952480 -0.809578 0.000001 -0.000006 -3.007578 -5.000182 -7.999411 0.000071 2.227651 66.548698 -1.564552 -9.098314 108.279966 -13.870711 -0.000000 0.000001 -0.000004 9.052125 -3.196909 0.869207 -0.000000 -0.000002 2.999998 -5.000152 7.999945 -0.000006 -1.510151 -173.863121 0.499568 -179.999991 0.000005 -0.862006 169.067700 0.942586 -0.928938 -0.000006 -0.000002 -0.119661 68.527732 5.070200 6.818041 25.457664 -7.355618 0.001042 -0.959759 177.897304 6.028817 -0.000004 -0.000005 -1.332100 -13.394751 3.903427 0.815700 -0.000002 0.000002 -0.223782 72.640667 -6.949014 -1.686297 25.456952 7.355612 -0.006460 
54.675594 -10.070916 93.968994 -4.825299 -0.018792 1.171444 -0.793150 -0.006205 0.437798 2.419660 -0.015913 0.873249 4.064649 -0.005636 0.873305 14.008074 4.433909 -2.101290 -12.260488 -6.321216 -2.277325 -26.418957 -80.690885 -30.222279 -88.323116 -106.055148 -62.456513 0.000000 0.000000 0.000001 11.369686 -3.871026 -0.818303 0.000003 -0.000007 -3.007577 -5.000186 -7.999409 0.000073 2.200347 66.552380 -1.533392 -9.144125 108.257904 -13.846823 0.000000 0.000001 -0.000005 8.994505 -3.212757 0.868623 -0.000002 -0.000001 3.000002 -5.000151 7.999946 -0.000008 -1.506221 -173.872110 0.487697 -179.999991 0.000005 -0.862006 169.038043 0.959175 -0.929221 -0.000007 -0.000002 -0.117474 68.557027 5.074165 6.809551 25.457665 -7.355618 0.001042 -0.953341 177.891293 6.026552 -0.000004 -0.000004 -1.332100 -13.400531 3.901485 0.815872 -0.000003 0.000002 -0.223782 72.644137 -6.947648 -1.690275 25.456955 7.355613 -0.006460 
